<svg width="24" height="24" viewBox="0 0 24 24" fill="none" xmlns="http://www.w3.org/2000/svg">
<g id="brand / google">
<path id="coolicon" d="M12.2137 10.362L12.2126 13.8404L17.1516 13.8419C16.6912 16.0522 14.7665 17.3216 12.2115 17.3208C9.23545 17.2798 6.84514 14.9084 6.84606 11.9977C6.84697 9.08701 9.23878 6.71704 12.2148 6.67792C13.4519 6.67686 14.6507 7.09706 15.6054 7.86635L18.286 5.24653C15.2129 2.60279 10.7238 2.26147 7.26989 4.40893C3.81598 6.55639 2.22734 10.6765 3.37145 14.5196C4.51555 18.3627 8.11743 21.005 12.2103 21.0039C16.8144 21.0053 21.002 17.7318 21.0038 12.0016C20.9969 11.4499 20.9279 10.9006 20.7982 10.3637L12.2137 10.362Z" fill="white"/>
</g>
</svg>
