<svg width="21" height="20" viewBox="0 0 21 20" fill="none" xmlns="http://www.w3.org/2000/svg">
<path fill-rule="evenodd" clip-rule="evenodd" d="M14.835 0C18.224 0 20.5 2.378 20.5 5.916V14.084C20.5 17.622 18.224 20 14.835 20H6.166C2.777 20 0.5 17.622 0.5 14.084V5.916C0.5 2.378 2.777 0 6.166 0H14.835ZM14.835 1.5H6.166C3.636 1.5 2 3.233 2 5.916V14.084C2 16.767 3.636 18.5 6.166 18.5H14.835C17.365 18.5 19 16.767 19 14.084V5.916C19 3.233 17.365 1.5 14.835 1.5ZM10.5 5.1639C10.914 5.1639 11.25 5.4999 11.25 5.9139V12.27L13.717 9.7929C14.01 9.4979 14.484 9.4999 14.777 9.7909C15.07 10.0829 15.072 10.5579 14.779 10.8519L11.031 14.6159C11.0065 14.6399 10.9812 14.6621 10.9544 14.6825L11.031 14.6159C10.9916 14.6558 10.9482 14.6908 10.9016 14.7204C10.8902 14.7265 10.8791 14.7332 10.8679 14.7395C10.8465 14.7526 10.8238 14.764 10.8006 14.7741C10.7941 14.776 10.7881 14.7785 10.7821 14.781C10.7588 14.7914 10.7346 14.7998 10.7099 14.807C10.6946 14.8105 10.6794 14.8145 10.664 14.8179C10.6452 14.823 10.6263 14.8265 10.6073 14.8292C10.592 14.8305 10.576 14.8323 10.5599 14.8335C10.5397 14.8361 10.5199 14.8369 10.5 14.8369L10.441 14.832L10.3983 14.829C10.3962 14.8288 10.3942 14.8285 10.3922 14.8282L10.5 14.8369C10.4445 14.8369 10.3895 14.8308 10.3361 14.8188C10.3206 14.8145 10.3054 14.8105 10.2904 14.8062C10.2654 14.7998 10.2412 14.7914 10.2174 14.7817C10.2119 14.7785 10.2059 14.776 10.1999 14.7734C10.1762 14.764 10.1535 14.7526 10.1314 14.7402C10.1209 14.7332 10.1098 14.7265 10.0989 14.7196C10.0801 14.7088 10.0623 14.6963 10.0451 14.6831C10.016 14.6599 9.98816 14.6352 9.96226 14.6086L6.221 10.8519C5.928 10.5579 5.93 10.0829 6.223 9.7909C6.517 9.4999 6.991 9.4979 7.283 9.7929L9.75 12.27V5.9139C9.75 5.4999 10.086 5.1639 10.5 5.1639Z" fill="white"/>
</svg>
